<?xml version="1.0" encoding="utf-8"?>
<svg xmlns="http://www.w3.org/2000/svg" viewBox="917.965 851.874 1639.501 900.414">
  <defs>
    <linearGradient gradientUnits="userSpaceOnUse" x1="1786.872" y1="889.716" x2="1786.872" y2="1221.529" id="gradient-0" gradientTransform="matrix(-0.162698, -1.016771, 1.667964, -0.301531, 292.973394, 3114.388946)">
      <stop offset="0" style="stop-color: rgb(0, 255, 255);"/>
      <stop offset="1" style="stop-color: rgb(233, 60, 238);"/>
    </linearGradient>
  </defs>
  <path style="stroke-width: 2px; fill: url(&quot;#gradient-0&quot;);" d="M 1877.45 1146.75 C 1877.45 1146.75 1902.22 1141.63 1912.53 1162.1 C 1922.85 1182.57 1904.97 1200.12 1904.97 1200.12 C 1904.97 1200.12 1814.18 1259.34 1704.82 1216.2 C 1704.82 1216.2 1644.29 1190.61 1671.8 1135.05 C 1699.31 1079.49 1756.88 1072.8 1775.66 1065.6 C 1805.21 1059.39 1844.68 1047.49 1916.36 1066.5 L 1934.61 1002.73 L 1904.35 1048.79 C 1904.35 1048.79 1878.9 1067.06 1847.94 1041.47 L 1828 1012.23 C 1828 1012.23 1801.86 971.291 1756.47 947.165 L 1741.65 965.164 C 1741.65 965.164 1706.63 1021.23 1698.8 1064.87 L 1695.94 1080.22 C 1695.94 1080.22 1666.36 1111.66 1631.97 1075.83 L 1618.9 1066.33 C 1618.9 1066.33 1590.7 1045.86 1570.07 1048.05 L 1567.99 1048.92 C 1567.99 1048.92 1622.84 1097.91 1655.08 1192.65 L 1654.04 1199.06 C 1654.04 1199.06 1639.8 1229.35 1595.04 1199.34 L 1588.84 1189.09 C 1588.84 1189.09 1558.45 1110.35 1512.83 1066.27 L 1486.93 1042.16 C 1486.93 1042.16 1468.02 1022.61 1494.44 1012.7 C 1520.87 1002.78 1557.4 1005.26 1557.4 1005.26 C 1557.4 1005.26 1596.43 1001.68 1640.73 1025.36 L 1645.65 1013.8 C 1645.65 1013.8 1669.67 946.244 1709.57 908.253 C 1749.47 870.263 1786.35 915.32 1824.03 936.23 C 1824.03 936.23 1857.91 960.582 1872.86 980.492 C 1872.86 980.492 1937.84 882.51 1996.61 890.137 C 1996.61 890.137 2049.19 897.763 2045.43 925.001 C 2045.43 925.001 1984.27 1019.42 1970.6 1137.81 C 1970.6 1137.81 1969.51 1149.23 1944.83 1143.25 C 1920.15 1137.27 1898.06 1115.21 1820.25 1118.76 C 1820.25 1118.76 1745.77 1127.82 1730.95 1156.57 C 1730.95 1156.57 1757.26 1176.26 1801.72 1170.74 C 1846.18 1165.23 1877.31 1147.11 1877.45 1146.75 Z"/>
  <g style="pointer-events: none;">
    <path style="fill-rule: nonzero; paint-order: fill; fill: none; stroke-width: 56px; stroke-linecap: round; stroke: rgb(0, 0, 0);" d="M 993.021 1265.22 C 1013.05 1274.09 1128.75 1378.83 1137.41 1397.2 C 1155.85 1438.56 982.433 1485.19 982.433 1485.19"/>
    <path style="fill: none; stroke-width: 56px; stroke-linecap: round; stroke: rgb(0, 0, 0);" d="M 1030.56 1584.44 L 1008.42 1317.38"/>
    <path style="fill: none; stroke-width: 56px; stroke-linecap: round; stroke: rgb(0, 0, 0);" d="M 1294.54 1572.54 C 1294.54 1572.54 1206.29 1534.05 1133.9 1510.8 C 1098.67 1499.49 1000.41 1488.39 982.172 1485.85"/>
    <path style="fill: none; stroke-linecap: round; stroke-width: 56px; stroke: rgb(0, 0, 0);" d="M 1196.58 1334.38 C 1196.58 1334.38 1225.13 1257.62 1265.94 1313.89 C 1290.44 1357.54 1289.13 1436.6 1279.32 1469.12 C 1267.97 1496.02 1241.14 1513.62 1219.3 1472.76 C 1197.45 1431.89 1202.29 1378.69 1202.29 1378.69"/>
    <path style="fill: none; stroke-width: 56px; stroke-linecap: round; stroke: rgb(0, 0, 0);" d="M 1326.48 1282.92 C 1325.61 1286.62 1392.69 1431.15 1394.25 1424.51"/>
    <path style="fill: none; stroke-width: 56px; stroke-linecap: round; stroke: rgb(0, 0, 0);" d="M 1439.73 1271.58 C 1411.77 1321.72 1384.06 1482.02 1382.64 1572.01"/>
    <path style="fill: rgb(216, 216, 216); stroke-width: 56px; stroke-linecap: round; stroke: rgb(0, 0, 0);" d="M 1574.79 1463.34 L 1456.09 1477.15"/>
    <path style="fill: none; stroke-width: 56px; stroke-linecap: round; stroke: rgb(0, 0, 0);" d="M 1510.34 1298.31 C 1509.04 1300.53 1622.11 1564.02 1624.56 1560.22"/>
    <path style="fill: none; stroke-width: 56px; stroke-linecap: round; stroke: rgb(0, 0, 0);" d="M 1482.32 1553.35 L 1506.74 1314.35"/>
    <path style="fill: none; stroke-width: 56px; stroke-linecap: round; stroke: rgb(0, 0, 0);" d="M 1644.8 1300.92 C 1648.54 1313.73 1685.2 1490.26 1684.85 1553.8"/>
    <path style="fill: rgb(216, 216, 216); stroke-width: 56px; stroke-linecap: round; stroke: rgb(0, 0, 0);" d="M 1693.82 1561.42 C 1709.28 1543.49 1796.12 1521.76 1853.42 1532.83"/>
    <path style="fill: none; stroke-linecap: round; stroke-width: 56px; stroke-linejoin: round; stroke: rgb(0, 0, 0);" d="M 1766.33 1289.73 C 1769.8 1292.19 1790.95 1446.62 1788.65 1470.49"/>
    <path style="fill: none; stroke-linecap: round; stroke-width: 56px; stroke-linejoin: round; stroke: rgb(0, 0, 0);" d="M 1769.31 1399.25 C 1779.71 1398.51 1866.42 1327.28 1861.54 1327.63"/>
    <path style="fill: none; stroke-linecap: round; stroke-width: 56px; stroke-linejoin: round; stroke: rgb(0, 0, 0);" d="M 1959.74 1291.19 C 1959.11 1292.54 1975.59 1528 1976.98 1525.03"/>
    <path style="fill: none; stroke-linecap: round; stroke-width: 56px; stroke-linejoin: round; stroke: rgb(0, 0, 0);" d="M 1793.56 1396.97 C 1841.64 1427.95 1958.53 1514.41 1971.5 1537.16"/>
    <path style="fill: none; stroke-linecap: round; stroke-width: 56px; stroke-linejoin: round; stroke: rgb(0, 0, 0);" d="M 2058.96 1274.74 L 2073.17 1519.39"/>
    <path style="fill: none; stroke-linecap: round; stroke-width: 56px; stroke-linejoin: round; stroke: rgb(0, 0, 0);" d="M 2344.74 1240.25 L 2371.64 1310.38"/>
    <path style="fill: none; stroke-linecap: round; stroke-width: 56px; stroke-linejoin: round; stroke: rgb(0, 0, 0);" d="M 2371.11 1308.17 C 2292.38 1241.12 2270.05 1277.87 2241.28 1305.94 C 2233.5 1323.06 2235.74 1344.1 2249.15 1350.33 C 2281.72 1369.73 2347.92 1385.41 2418.59 1394.74 C 2431.34 1396.68 2468.27 1402.88 2478.54 1425.2 C 2492.47 1489.6 2376.89 1530.25 2376.89 1530.25 C 2376.89 1530.25 2291.49 1566.76 2270.7 1538.49 C 2247.42 1502.23 2298.83 1453.56 2298.83 1453.56"/>
    <path style="fill: none; stroke-width: 56px; stroke-linecap: round; stroke-linejoin: round; stroke: rgb(0, 0, 0);" d="M 2080.52 1522.51 C 2110.41 1514.77 2221.34 1495.93 2228.24 1443.17 C 2237.22 1405.46 2186.44 1373.21 2133.92 1333.91 C 2112.15 1316.41 2094.58 1293.59 2062.61 1271.95"/>
  </g>
</svg>